<?xml version="1.0" encoding="UTF-8"?>
<svg xmlns="http://www.w3.org/2000/svg" xmlns:xlink="http://www.w3.org/1999/xlink" width="32px" height="32px" viewBox="0 0 32 32" version="1.1">
<g id="surface1">
<path style=" stroke:none;fill-rule:nonzero;fill:rgb(34.509804%,39.607843%,94.901961%);fill-opacity:1;" d="M 32 16 C 32 24.835938 24.835938 32 16 32 C 7.164062 32 0 24.835938 0 16 C 0 7.164062 7.164062 0 16 0 C 24.835938 0 32 7.164062 32 16 Z M 32 16 "/>
<path style=" stroke:none;fill-rule:nonzero;fill:rgb(100%,100%,100%);fill-opacity:1;" d="M 21.542969 10.90625 C 20.507812 10.429688 19.414062 10.089844 18.289062 9.894531 C 18.265625 9.890625 18.246094 9.902344 18.234375 9.921875 C 18.085938 10.191406 17.949219 10.46875 17.828125 10.753906 C 16.617188 10.570312 15.382812 10.570312 14.171875 10.753906 C 14.050781 10.46875 13.910156 10.191406 13.757812 9.921875 C 13.75 9.902344 13.726562 9.894531 13.707031 9.894531 C 12.582031 10.089844 11.488281 10.429688 10.453125 10.90625 C 10.441406 10.910156 10.433594 10.917969 10.429688 10.925781 C 8.355469 14.023438 7.789062 17.046875 8.066406 20.03125 C 8.066406 20.046875 8.074219 20.058594 8.085938 20.070312 C 9.296875 20.964844 10.644531 21.644531 12.082031 22.089844 C 12.101562 22.09375 12.125 22.085938 12.140625 22.070312 C 12.445312 21.648438 12.71875 21.207031 12.957031 20.742188 C 12.960938 20.726562 12.964844 20.710938 12.957031 20.699219 C 12.953125 20.6875 12.941406 20.675781 12.929688 20.671875 C 12.496094 20.503906 12.078125 20.308594 11.679688 20.078125 C 11.664062 20.066406 11.65625 20.050781 11.65625 20.035156 C 11.652344 20.019531 11.660156 20 11.675781 19.992188 C 11.757812 19.929688 11.84375 19.863281 11.921875 19.796875 C 11.9375 19.785156 11.957031 19.78125 11.972656 19.789062 C 14.59375 20.984375 17.429688 20.984375 20.015625 19.789062 C 20.03125 19.78125 20.054688 19.785156 20.066406 19.796875 C 20.148438 19.863281 20.230469 19.929688 20.316406 19.992188 C 20.332031 20 20.339844 20.019531 20.339844 20.035156 C 20.335938 20.050781 20.328125 20.066406 20.3125 20.078125 C 19.914062 20.308594 19.496094 20.507812 19.0625 20.671875 C 19.050781 20.675781 19.039062 20.6875 19.035156 20.699219 C 19.027344 20.714844 19.03125 20.730469 19.035156 20.742188 C 19.277344 21.203125 19.546875 21.648438 19.851562 22.070312 C 19.867188 22.089844 19.886719 22.097656 19.910156 22.089844 C 21.347656 21.648438 22.699219 20.964844 23.910156 20.070312 C 23.921875 20.0625 23.929688 20.046875 23.929688 20.03125 C 24.265625 16.582031 23.371094 13.582031 21.5625 10.925781 C 21.558594 10.917969 21.554688 10.910156 21.542969 10.90625 Z M 13.347656 18.214844 C 12.558594 18.214844 11.910156 17.492188 11.910156 16.601562 C 11.910156 15.710938 12.546875 14.988281 13.347656 14.988281 C 14.152344 14.988281 14.796875 15.71875 14.785156 16.601562 C 14.785156 17.492188 14.148438 18.214844 13.347656 18.214844 Z M 18.664062 18.214844 C 17.875 18.214844 17.226562 17.492188 17.226562 16.601562 C 17.226562 15.710938 17.863281 14.988281 18.664062 14.988281 C 19.46875 14.988281 20.113281 15.71875 20.101562 16.601562 C 20.101562 17.492188 19.46875 18.214844 18.664062 18.214844 Z M 18.664062 18.214844 "/>
</g>
</svg>
