<svg width="108" height="95" viewBox="0 0 108 95" fill="none" xmlns="http://www.w3.org/2000/svg">
<g clip-path="url(#clip0_540_31)">
<path opacity="0.27" d="M106.168 0.996002H0.991943V13.1416H106.168V0.996002Z" fill="#7B7B7F"/>
<path d="M25.5592 19.6525H11.3467V33.9224H25.5592V19.6525Z" fill="#D4F2DB"/>
<path d="M94.754 36.0773H80.5415V50.3471H94.754V36.0773Z" fill="#D4F2DB"/>
<path d="M87.259 8.66272C89.3746 8.66272 89.3777 5.47491 87.259 5.47491C85.1402 5.47491 85.1402 8.66272 87.259 8.66272Z" fill="#226F54"/>
<path d="M92.9475 8.66272C95.0601 8.66272 95.0631 5.47491 92.9475 5.47491C90.8319 5.47491 90.8288 8.66272 92.9475 8.66272Z" fill="#226F54"/>
<path d="M98.6269 8.66272C100.74 8.66272 100.743 5.47491 98.6269 5.47491C96.5113 5.47491 96.5082 8.66272 98.6269 8.66272Z" fill="#226F54"/>
<path d="M0.991996 94.42C0.72915 94.4192 0.477301 94.314 0.291441 94.1274C0.10558 93.9408 0.000807518 93.6879 0 93.424L0 0.995998C0 0.731843 0.104514 0.478507 0.290549 0.291721C0.476584 0.104935 0.728902 0 0.991996 0L106.168 0C106.431 0 106.683 0.104935 106.869 0.291721C107.055 0.478507 107.16 0.731843 107.16 0.995998V93.424C107.159 93.6879 107.054 93.9408 106.869 94.1274C106.683 94.314 106.431 94.4192 106.168 94.42H0.991996ZM1.98399 92.428H105.164V14.1407H36.5109C36.3818 14.1446 36.2534 14.1211 36.1339 14.0717C36.0145 14.0224 35.9067 13.9483 35.8178 13.8543C35.7288 13.7603 35.6605 13.6485 35.6175 13.5263C35.5744 13.404 35.5575 13.274 35.5679 13.1447C35.5575 13.0155 35.5744 12.8854 35.6175 12.7632C35.6605 12.6409 35.7288 12.5291 35.8178 12.4351C35.9067 12.3411 36.0145 12.267 36.1339 12.2177C36.2534 12.1683 36.3818 12.1448 36.5109 12.1487H105.176V2.00429H1.98399V12.1487H28.1096C28.2387 12.1448 28.3672 12.1683 28.4866 12.2177C28.6061 12.267 28.7138 12.3411 28.8028 12.4351C28.8918 12.5291 28.96 12.6409 29.0031 12.7632C29.0461 12.8854 29.063 13.0155 29.0526 13.1447C29.063 13.274 29.0461 13.404 29.0031 13.5263C28.96 13.6485 28.8918 13.7603 28.8028 13.8543C28.7138 13.9483 28.6061 14.0224 28.4866 14.0717C28.3672 14.1211 28.2387 14.1446 28.1096 14.1407H1.98399V92.428Z" fill="#226F54"/>
<path d="M80.1495 51.7366C79.8864 51.7366 79.6341 51.6316 79.448 51.4448C79.262 51.2581 79.1575 51.0047 79.1575 50.7406V35.6776C79.1575 35.4135 79.262 35.1601 79.448 34.9734C79.6341 34.7866 79.8864 34.6816 80.1495 34.6816H95.1519C95.415 34.6816 95.6673 34.7866 95.8533 34.9734C96.0393 35.1601 96.1439 35.4135 96.1439 35.6776V50.7406C96.1439 51.0047 96.0393 51.2581 95.8533 51.4448C95.6673 51.6316 95.415 51.7366 95.1519 51.7366H80.1495ZM81.1415 49.7446H94.1537V36.6829H81.1353L81.1415 49.7446Z" fill="#226F54"/>
<path d="M10.9578 34.7831C10.8275 34.7831 10.6986 34.7573 10.5782 34.7073C10.4578 34.6572 10.3485 34.5838 10.2564 34.4914C10.1643 34.3989 10.0912 34.2891 10.0413 34.1682C9.99148 34.0474 9.96582 33.9179 9.96582 33.7871V18.7241C9.96663 18.4602 10.0714 18.2074 10.2573 18.0208C10.4431 17.8342 10.695 17.729 10.9578 17.7281H25.9602C26.2231 17.7314 26.4739 17.8389 26.6581 18.0273C26.8422 18.2156 26.9447 18.4695 26.943 18.7334V33.7963C26.943 34.0605 26.8385 34.3138 26.6525 34.5006C26.4664 34.6874 26.2141 34.7923 25.951 34.7923L10.9578 34.7831ZM11.9406 32.7942H24.9529V19.7294H11.9406V32.7942Z" fill="#226F54"/>
<path d="M10.5477 81.8348C10.2864 81.834 10.0359 81.7301 9.85031 81.5454C9.66471 81.3608 9.55888 81.1103 9.55566 80.848V65.7851C9.55647 65.5212 9.66124 65.2683 9.84711 65.0817C10.033 64.8951 10.2848 64.7899 10.5477 64.7891H25.5501C25.8121 64.7907 26.0628 64.8963 26.2476 65.083C26.4323 65.2696 26.5359 65.522 26.5359 65.7851V80.848C26.5351 81.1119 26.4304 81.3648 26.2445 81.5514C26.0586 81.738 25.8068 81.8432 25.5439 81.844L10.5477 81.8348ZM11.5397 79.8428H24.5519V66.7811H11.5397V79.8428Z" fill="#226F54"/>
<path d="M80.1495 84.2633C79.8864 84.2633 79.6341 84.1583 79.448 83.9715C79.262 83.7848 79.1575 83.5314 79.1575 83.2673V68.2043C79.1575 67.9402 79.262 67.6869 79.448 67.5001C79.6341 67.3133 79.8864 67.2083 80.1495 67.2083H95.1519C95.2824 67.2091 95.4115 67.2358 95.5317 67.2868C95.652 67.3378 95.761 67.4121 95.8526 67.5055C95.9442 67.5989 96.0165 67.7095 96.0655 67.831C96.1144 67.9525 96.1389 68.0825 96.1377 68.2136V83.2765C96.1377 83.5406 96.0332 83.794 95.8472 83.9808C95.6612 84.1676 95.4088 84.2725 95.1457 84.2725L80.1495 84.2633ZM81.1415 82.2713H94.1537V69.2096H81.1353L81.1415 82.2713Z" fill="#226F54"/>
<path d="M32.9563 75.3731H72.9025" stroke="#226F54" stroke-width="2" stroke-miterlimit="10"/>
<path d="M72.2319 77.6725L76.1969 75.3731L72.2319 73.0737V77.6725Z" fill="#226F54"/>
<path d="M25.9695 26.7874L75.8111 41.9364" stroke="#226F54" stroke-width="2" stroke-miterlimit="10"/>
<path d="M74.072 44.6109L80.0179 43.2122L75.8417 38.7425L74.072 44.6109Z" fill="#226F54"/>
<path d="M70.6553 55.9634L34.3984 67.8416" stroke="#226F54" stroke-width="2" stroke-miterlimit="10"/>
<path d="M34.3005 64.6476L30.2192 69.2096L36.1926 70.4761L34.3005 64.6476Z" fill="#226F54"/>
<g opacity="0.35">
<path d="M59.9544 42.8064C61.9691 43.4427 62.9274 40.4055 60.9066 39.7661C58.8859 39.1267 57.9337 42.167 59.9544 42.8064Z" fill="black"/>
<path d="M52.4869 40.4424C54.5015 41.0818 55.4598 38.0416 53.4391 37.4052C51.4184 36.7689 50.4662 39.803 52.4869 40.4424Z" fill="black"/>
<path d="M45.007 38.0815C47.0247 38.7179 47.9799 35.6807 45.9623 35.0413C43.9446 34.4019 42.9863 37.4421 45.007 38.0815Z" fill="black"/>
<path d="M37.5488 35.7176C39.5664 36.357 40.5217 33.3167 38.504 32.6773C36.4863 32.0379 35.528 35.0782 37.5488 35.7176Z" fill="black"/>
</g>
<path d="M58.9685 66.0125C58.2857 65.9726 57.4376 66.0125 57.0457 66.5536C56.6538 67.0946 56.8743 67.8662 57.0733 68.398C57.3795 69.1665 57.0335 69.3694 56.2497 69.7537C56.0966 69.8305 55.9435 69.9074 55.7843 69.9965L55.7506 70.015C55.2761 70.2947 54.8321 70.556 54.4678 70.4453C54.253 70.3577 54.0725 70.2023 53.9534 70.0027C53.5401 69.4063 53.1451 69.0589 52.7502 68.936C52.0521 68.7177 51.452 69.1604 50.9682 70.2455C50.7202 70.7989 50.3926 70.9003 49.6211 70.6605C49.517 70.6298 49.416 70.5929 49.3149 70.5591L49.1649 70.5099L48.8097 70.4085L48.4699 70.3132C47.8575 70.1195 47.5514 69.9105 47.6463 69.2557C47.8637 67.5188 47.1044 67.2821 46.8564 67.2053C46.3884 67.102 45.8999 67.1493 45.4602 67.3405C45.2195 67.4432 44.9523 67.4659 44.6979 67.4051C44.2906 67.2791 44.0335 66.7718 43.7579 66.2308L43.6416 66.0033C43.1884 65.1395 43.0047 64.703 43.7273 64.1589C44.4499 63.6148 44.753 63.1168 44.704 62.6034C44.655 62.09 44.2508 61.6474 43.4609 61.2508C42.7537 60.8942 42.8486 60.4638 43.1364 59.6031C43.1823 59.4525 43.2344 59.2957 43.2742 59.1451C43.562 58.0753 43.8865 57.7925 44.655 57.9339C45.4817 58.0876 46.0573 57.9677 46.3695 57.5834C46.6818 57.1992 46.6757 56.5967 46.3542 55.8097C45.9807 54.8875 46.3879 54.6354 47.2728 54.1682L47.5789 53.9991C48.0841 53.7132 48.5679 53.4673 48.9506 53.5872C49.2129 53.6908 49.4299 53.8848 49.5629 54.1343C49.9548 54.7492 50.3161 55.0996 50.6988 55.2164C51.3418 55.4162 51.8868 54.9828 52.3215 53.9284C52.6277 53.1537 53.0992 53.1476 54.0085 53.4304L54.2626 53.5103L54.48 53.581C55.4383 53.8884 55.8884 54.0667 55.7047 54.9736C55.4873 56.0649 55.7047 56.7196 56.3416 56.9164C56.7273 57.0363 57.2264 56.9594 57.9183 56.6704C58.1532 56.5498 58.421 56.5099 58.6807 56.5567C58.7635 56.5873 58.8392 56.6345 58.9034 56.6952C58.9676 56.756 59.0189 56.8291 59.0542 56.9102C59.1553 57.0947 59.2624 57.276 59.3604 57.4513C59.7003 58.023 60.0248 58.5671 60.0585 59.2096C60.0034 59.2619 59.9544 59.3141 59.9023 59.3664C59.7571 59.5225 59.5994 59.6664 59.4308 59.7968C58.7021 60.3194 58.3715 60.8235 58.4266 61.3338C58.4817 61.8441 58.9165 62.2745 59.7584 62.6372C60.3218 62.8801 60.5973 63.2305 60.2207 64.2265C60.1491 64.4281 60.0878 64.6334 60.037 64.8413C59.8288 65.6375 59.6849 66.0494 58.9685 66.0125Z" fill="#CEF7A0"/>
<path d="M50.2581 71.967C49.8023 71.9448 49.3534 71.8472 48.9293 71.6781C48.7946 71.6319 48.6476 71.592 48.5037 71.552C47.772 71.3491 46.2473 70.9372 46.4769 69.0928C46.5271 68.837 46.5271 68.5739 46.4769 68.3181H46.4401C46.2395 68.3287 46.0419 68.3724 45.8554 68.4472C45.5656 68.5525 45.2603 68.6086 44.9522 68.6132C43.6601 68.6132 43.1151 67.5404 42.714 66.7688L42.6008 66.5505C42.1782 65.742 41.4679 64.3833 43.0233 63.2029C43.2216 63.0727 43.3914 62.9032 43.5223 62.7049C43.3588 62.531 43.1606 62.3937 42.9406 62.3022C41.2934 61.4752 41.7649 60.012 42.0221 59.2281C42.065 59.0959 42.1109 58.9606 42.1446 58.8315C42.3007 58.2505 42.711 56.7104 44.3429 56.7104C44.5238 56.7103 44.7042 56.7278 44.8817 56.7627C45.0232 56.7885 45.1666 56.8029 45.3104 56.8057C45.3501 56.8093 45.3901 56.8093 45.4298 56.8057C45.4031 56.618 45.3506 56.4348 45.2736 56.2616C44.4745 54.3188 45.938 53.538 46.7249 53.1199L47.0127 52.9631C47.5317 52.6181 48.1308 52.4137 48.7517 52.3698C49.4774 52.3698 50.0866 52.748 50.5612 53.498C50.6707 53.6818 50.8012 53.852 50.9501 54.0052C51.0632 53.8394 51.1567 53.661 51.2287 53.4734C51.7063 52.3145 52.5421 52.0717 53.1575 52.0717C53.6593 52.0976 54.154 52.2013 54.6241 52.3791L54.8354 52.4467C55.6835 52.7141 57.2633 53.2121 56.8683 55.2134C56.8249 55.4007 56.8054 55.5928 56.8102 55.7851C57.0381 55.745 57.2602 55.6769 57.4715 55.5822C57.7875 55.4329 58.1299 55.3483 58.4788 55.3332C58.8123 55.3317 59.1394 55.4246 59.4227 55.6013C59.7059 55.7781 59.9338 56.0314 60.0801 56.3323C60.1689 56.4983 60.2668 56.6643 60.3648 56.8272C60.7812 57.5281 61.2558 58.3182 61.2344 59.3726V59.7107L60.9894 59.9443L60.7445 60.1872C60.5569 60.393 60.352 60.5823 60.1321 60.7528C59.9473 60.8708 59.7837 61.0194 59.6484 61.1924C59.8248 61.3372 60.0233 61.4524 60.2362 61.5336C60.968 61.841 62.0733 62.668 61.3384 64.6323C61.2864 64.7768 61.2405 64.9397 61.1915 65.1364C61.0047 65.8558 60.6557 67.1991 59.0728 67.1991H58.9166H58.6105C58.4107 67.1875 58.2104 67.2125 58.0196 67.2729C58.0299 67.5183 58.0871 67.7593 58.1879 67.983C58.8799 69.7998 57.4593 70.4945 56.7796 70.8296C56.6357 70.9003 56.5009 70.9649 56.3907 71.0325L56.354 71.051C55.8535 71.4044 55.2678 71.6167 54.6578 71.6658C54.3203 71.6568 53.9905 71.5622 53.6993 71.3907C53.408 71.2192 53.1648 70.9765 52.9922 70.6851C52.8513 70.456 52.6685 70.2557 52.4534 70.0949C52.2791 70.2801 52.1437 70.4986 52.0553 70.7374C51.92 71.1043 51.6742 71.4199 51.3522 71.6402C51.0301 71.8606 50.6477 71.9748 50.2581 71.967ZM48.4425 69.434C48.5297 69.4744 48.6198 69.5083 48.7119 69.5354L49.0181 69.6246L49.3978 69.7322L49.5723 69.7906L49.8478 69.8828C49.9608 69.9197 50.0765 69.9474 50.1938 69.9658C50.2042 69.948 50.2134 69.9295 50.2214 69.9105C50.7694 68.6808 51.5012 68.066 52.4044 68.066C52.5997 68.0657 52.7938 68.0958 52.98 68.1552C53.5556 68.3335 54.0883 68.77 54.6057 69.5324C54.6332 69.5709 54.6628 69.6079 54.6945 69.643C54.9167 69.5506 55.1308 69.4395 55.3344 69.311L55.3742 69.2864C55.5426 69.1881 55.7233 69.0989 55.8794 69.0221C56.0356 68.9452 56.2193 68.8561 56.3448 68.7761C56.3448 68.7515 56.3264 68.7208 56.3111 68.6839C56.155 68.2751 55.6988 67.0362 56.3846 66.074C57.0276 65.1856 58.2002 65.1856 58.5829 65.1856C58.7268 65.1856 58.8676 65.1856 59.0054 65.1856H59.0912C59.1623 64.999 59.2216 64.808 59.2687 64.6139C59.326 64.3754 59.3966 64.1404 59.48 63.9099C59.5458 63.7577 59.5861 63.5957 59.5994 63.4303C59.5528 63.4003 59.5036 63.3746 59.4524 63.3535C58.3349 62.8739 57.7256 62.213 57.6368 61.3922C57.548 60.5715 57.9981 59.8091 58.9748 59.1082C59.058 59.0463 59.1359 58.9774 59.2075 58.9022C59.0765 58.5272 58.8996 58.1699 58.6809 57.8386C58.5798 57.6695 58.4819 57.5035 58.3747 57.3375L58.2186 57.3929C57.7449 57.6117 57.2331 57.7349 56.7122 57.7556C56.5046 57.7563 56.2981 57.7252 56.0999 57.6634C55.4875 57.4728 54.5016 56.8426 54.9088 54.7891C54.9239 54.7246 54.9321 54.6587 54.9333 54.5924C54.7087 54.481 54.4739 54.3914 54.2322 54.3249L53.7638 54.1774C53.5655 54.1089 53.36 54.0635 53.1514 54.0421C53.1159 54.0936 53.0871 54.1494 53.0657 54.2081C52.5636 55.4378 51.8655 56.0526 50.9899 56.0526C50.8091 56.0519 50.6295 56.0239 50.4571 55.9696C49.8785 55.7913 49.3794 55.3394 48.8773 54.5463C48.8333 54.4737 48.7808 54.4066 48.7211 54.3465C48.462 54.4277 48.2141 54.5413 47.9833 54.6846L47.6587 54.8598C47.4438 54.9685 47.2389 55.0961 47.0464 55.241C47.0629 55.3226 47.0885 55.402 47.1229 55.4777C47.5669 56.5629 47.5301 57.4359 47.0188 58.0722C46.8092 58.3152 46.5464 58.5062 46.2512 58.6304C45.9559 58.7547 45.636 58.8088 45.3165 58.7885C45.0525 58.7854 44.7893 58.7597 44.5296 58.7116C44.4693 58.6984 44.4077 58.6912 44.3459 58.6901H44.3214C44.2041 58.8899 44.1213 59.1082 44.0765 59.3357C44.0306 59.5017 43.9785 59.6677 43.9234 59.8306C43.8542 60.0317 43.798 60.2371 43.755 60.4454C43.7833 60.464 43.813 60.4805 43.8438 60.4946C44.8879 61.0203 45.4573 61.6935 45.5308 62.4989C45.6043 63.3043 45.1818 64.0574 44.2357 64.7737C44.1758 64.8172 44.1213 64.8677 44.0734 64.9243C44.153 65.1604 44.2555 65.3879 44.3796 65.6037C44.4194 65.6775 44.4592 65.7513 44.5021 65.8373C44.6233 66.1127 44.7797 66.3711 44.9675 66.6058C45.0546 66.6011 45.1403 66.5824 45.2216 66.5505C45.6135 66.4019 46.0275 66.3209 46.4463 66.3107C46.6701 66.3103 46.8929 66.3424 47.1076 66.406C47.8608 66.6397 48.7089 67.3283 48.4609 69.3325C48.4456 69.3879 48.4456 69.4155 48.4425 69.434Z" fill="#226F54"/>
<path d="M60.5731 64.3495C60.8792 63.4949 60.9129 62.7141 59.9056 62.2806C58.5585 61.6996 58.3962 60.9926 59.6484 60.095C59.9267 59.8668 60.1896 59.6203 60.4353 59.3572C60.4567 58.3151 59.8229 57.5496 59.379 56.7227C59.0024 56.0218 58.3809 56.0618 57.7685 56.3139C56.4642 56.858 55.7447 56.6581 56.0662 55.0381C56.3387 53.6702 55.3345 53.455 54.4037 53.1537C53.4729 52.8525 52.484 52.5174 51.9543 53.7685C51.342 55.2779 50.6347 55.1457 49.8571 53.9192C49.1314 52.7695 48.2895 53.1445 47.3863 53.6548C46.4831 54.1651 45.4145 54.5186 45.9993 55.9388C46.5259 57.2207 46.1034 57.8079 44.7164 57.5496C43.4918 57.3252 43.1519 58.103 42.9039 59.0313C42.6559 59.9597 42.0619 60.9588 43.2836 61.5736C44.6705 62.2683 44.6032 63.003 43.4918 63.8422C42.3804 64.6815 42.9651 65.5115 43.4091 66.3814C43.853 67.2514 44.2939 68.1306 45.5737 67.6879C46.9791 67.1991 47.4444 67.7494 47.2638 69.2003C47.0954 70.5714 48.314 70.6052 49.1804 70.9065C49.9826 71.1831 50.8276 71.4352 51.2961 70.39C51.9788 68.853 52.7565 68.9452 53.6322 70.2086C54.367 71.2661 55.163 70.7712 55.9621 70.3132C56.7612 69.8551 57.9308 69.6184 57.4134 68.2566C56.8163 66.6888 57.4501 66.2984 58.9442 66.3814C60.2914 66.4614 60.2516 65.2041 60.5731 64.3495ZM58.9687 66.0125C58.286 65.9726 57.4379 66.0125 57.046 66.5536C56.6541 67.0946 56.8745 67.8662 57.0735 68.398C57.3797 69.1665 57.0337 69.3694 56.2499 69.7537C56.0968 69.8305 55.9438 69.9074 55.7845 69.9965L55.7509 70.015C55.2763 70.2947 54.8323 70.556 54.468 70.4453C54.2533 70.3577 54.0727 70.2023 53.9536 70.0027C53.5403 69.4063 53.1453 69.0589 52.7504 68.936C52.0523 68.7177 51.4522 69.1604 50.9685 70.2455C50.7205 70.7989 50.3929 70.9003 49.6213 70.6605C49.5172 70.6298 49.4162 70.5929 49.3151 70.5591L49.1651 70.5099L48.81 70.4085L48.4701 70.3132C47.8578 70.1195 47.5516 69.9105 47.6465 69.2557C47.8639 67.5188 47.1046 67.2821 46.8566 67.2053C46.3886 67.102 45.9001 67.1493 45.4604 67.3405C45.2197 67.4432 44.9525 67.4659 44.6981 67.4051C44.2909 67.2791 44.0337 66.7718 43.7581 66.2308L43.6418 66.0033C43.1886 65.1395 43.0049 64.703 43.7275 64.1589C44.4501 63.6148 44.7532 63.1168 44.7042 62.6034C44.6552 62.09 44.2511 61.6474 43.4611 61.2508C42.7539 60.8942 42.8488 60.4638 43.1366 59.6031C43.1825 59.4525 43.2346 59.2957 43.2744 59.1451C43.5622 58.0753 43.8867 57.7925 44.6552 57.9339C45.4819 58.0876 46.0575 57.9677 46.3698 57.5834C46.6821 57.1992 46.6759 56.5967 46.3545 55.8097C45.9809 54.8875 46.3881 54.6354 47.273 54.1682L47.5791 53.9991C48.0843 53.7132 48.5681 53.4673 48.9508 53.5872C49.2131 53.6908 49.4302 53.8848 49.5631 54.1343C49.955 54.7492 50.3163 55.0996 50.699 55.2164C51.342 55.4162 51.887 54.9828 52.3217 53.9284C52.6279 53.1537 53.0994 53.1476 54.0087 53.4304L54.2629 53.5103L54.4803 53.581C55.4386 53.8884 55.8886 54.0667 55.7049 54.9736C55.4876 56.0649 55.7049 56.7196 56.3418 56.9164C56.7276 57.0363 57.2266 56.9594 57.9186 56.6704C58.1535 56.5499 58.4213 56.5099 58.6809 56.5567C58.7637 56.5874 58.8394 56.6345 58.9036 56.6952C58.9678 56.756 59.0191 56.8291 59.0545 56.9102C59.1555 57.0947 59.2627 57.276 59.3606 57.4513C59.7005 58.023 60.025 58.5671 60.0587 59.2096C60.0036 59.2619 59.9546 59.3141 59.9025 59.3664C59.7573 59.5225 59.5996 59.6665 59.431 59.7968C58.7024 60.3194 58.3717 60.8235 58.4268 61.3338C58.4819 61.8441 58.9167 62.2745 59.7586 62.6372C60.322 62.8801 60.5976 63.2305 60.221 64.2265C60.1493 64.4282 60.088 64.6334 60.0373 64.8413C59.8291 65.6375 59.6852 66.0494 58.9687 66.0125Z" fill="#226F54"/>
<path d="M53.1053 62.4312C53.0183 62.7203 52.8474 62.9768 52.6145 63.1679C52.3816 63.359 52.0972 63.476 51.7978 63.504C51.4983 63.532 51.1973 63.4697 50.9332 63.3251C50.6692 63.1805 50.4541 62.9601 50.3154 62.6921C50.1767 62.4242 50.1207 62.1208 50.1547 61.8207C50.1886 61.5206 50.3108 61.2375 50.5058 61.0076C50.7008 60.7776 50.9596 60.6113 51.2492 60.5297C51.5388 60.4482 51.8461 60.4552 52.1317 60.5499C52.3202 60.6069 52.4955 60.7012 52.647 60.8273C52.7986 60.9534 52.9235 61.1087 53.0143 61.2841C53.1051 61.4595 53.1599 61.6514 53.1755 61.8484C53.1912 62.0455 53.1673 62.2436 53.1053 62.4312Z" fill="#226F54"/>
</g>
<defs>
<clipPath id="clip0_540_31">
<rect width="107.16" height="94.42" fill="white"/>
</clipPath>
</defs>
</svg>
