<?xml version="1.0" encoding="UTF-8"?>
<svg xmlns="http://www.w3.org/2000/svg" xmlns:xlink="http://www.w3.org/1999/xlink" width="32px" height="32px" viewBox="0 0 32 32" version="1.1">
<defs>
<linearGradient id="linear0" gradientUnits="userSpaceOnUse" x1="275.517" y1="4.5714" x2="275.517" y2="549.7202" gradientTransform="matrix(0.0580726,0,0,-0.0580726,0,32.172243)">
<stop offset="0" style="stop-color:rgb(87.843137%,60.784314%,23.921569%);stop-opacity:1;"/>
<stop offset="0.3" style="stop-color:rgb(78.039216%,29.803922%,30.196078%);stop-opacity:1;"/>
<stop offset="0.6" style="stop-color:rgb(76.078431%,9.803922%,45.882353%);stop-opacity:1;"/>
<stop offset="1" style="stop-color:rgb(43.921569%,14.117647%,76.862745%);stop-opacity:1;"/>
</linearGradient>
<linearGradient id="linear1" gradientUnits="userSpaceOnUse" x1="275.517" y1="4.5714" x2="275.517" y2="549.7202" gradientTransform="matrix(0.0580726,0,0,-0.0580726,0,32.172243)">
<stop offset="0" style="stop-color:rgb(87.843137%,60.784314%,23.921569%);stop-opacity:1;"/>
<stop offset="0.3" style="stop-color:rgb(78.039216%,29.803922%,30.196078%);stop-opacity:1;"/>
<stop offset="0.6" style="stop-color:rgb(76.078431%,9.803922%,45.882353%);stop-opacity:1;"/>
<stop offset="1" style="stop-color:rgb(43.921569%,14.117647%,76.862745%);stop-opacity:1;"/>
</linearGradient>
<linearGradient id="linear2" gradientUnits="userSpaceOnUse" x1="418.306" y1="4.5714" x2="418.306" y2="549.7202" gradientTransform="matrix(0.0580726,0,0,-0.0580726,0,32.172243)">
<stop offset="0" style="stop-color:rgb(87.843137%,60.784314%,23.921569%);stop-opacity:1;"/>
<stop offset="0.3" style="stop-color:rgb(78.039216%,29.803922%,30.196078%);stop-opacity:1;"/>
<stop offset="0.6" style="stop-color:rgb(76.078431%,9.803922%,45.882353%);stop-opacity:1;"/>
<stop offset="1" style="stop-color:rgb(43.921569%,14.117647%,76.862745%);stop-opacity:1;"/>
</linearGradient>
</defs>
<g id="surface1">
<path style=" stroke:none;fill-rule:nonzero;fill:url(#linear0);" d="M 22.46875 0 L 9.53125 0 C 4.277344 0 0 4.277344 0 9.53125 L 0 22.46875 C 0 27.722656 4.277344 32 9.53125 32 L 22.46875 32 C 27.722656 32 32 27.722656 32 22.46875 L 32 9.53125 C 32 4.277344 27.722656 0 22.46875 0 Z M 28.78125 22.46875 C 28.78125 25.953125 25.953125 28.78125 22.46875 28.78125 L 9.53125 28.78125 C 6.046875 28.78125 3.21875 25.953125 3.21875 22.46875 L 3.21875 9.53125 C 3.21875 6.046875 6.046875 3.21875 9.53125 3.21875 L 22.46875 3.21875 C 25.953125 3.21875 28.78125 6.046875 28.78125 9.53125 Z M 28.78125 22.46875 "/>
<path style=" stroke:none;fill-rule:nonzero;fill:url(#linear1);" d="M 16 7.722656 C 11.4375 7.722656 7.722656 11.4375 7.722656 16 C 7.722656 20.5625 11.4375 24.277344 16 24.277344 C 20.5625 24.277344 24.277344 20.5625 24.277344 16 C 24.277344 11.4375 20.5625 7.722656 16 7.722656 Z M 16 21.058594 C 13.207031 21.058594 10.941406 18.792969 10.941406 16 C 10.941406 13.207031 13.207031 10.941406 16 10.941406 C 18.792969 10.941406 21.058594 13.207031 21.058594 16 C 21.058594 18.792969 18.792969 21.058594 16 21.058594 Z M 16 21.058594 "/>
<path style=" stroke:none;fill-rule:nonzero;fill:url(#linear2);" d="M 26.273438 7.785156 C 26.273438 8.882812 25.386719 9.769531 24.292969 9.769531 C 23.195312 9.769531 22.308594 8.882812 22.308594 7.785156 C 22.308594 6.691406 23.195312 5.804688 24.292969 5.804688 C 25.386719 5.804688 26.273438 6.691406 26.273438 7.785156 Z M 26.273438 7.785156 "/>
</g>
</svg>
